<?xml version="1.0" standalone="no"?>
<!DOCTYPE svg PUBLIC "-//W3C//DTD SVG 20010904//EN"
 "http://www.w3.org/TR/2001/REC-SVG-20010904/DTD/svg10.dtd">
<svg version="1.0" xmlns="http://www.w3.org/2000/svg"
 width="433.000000pt" height="433.000000pt" viewBox="0 0 433.000000 433.000000"
 preserveAspectRatio="xMidYMid meet">
<metadata>
Created by potrace 1.14, written by Peter Selinger 2001-2017
</metadata>
<g transform="translate(0.000000,433.000000) scale(0.100000,-0.100000)"
fill="#000000" stroke="none">
<path d="M2115 3463 c-61 -14 -116 -37 -138 -59 -22 -22 -29 -24 -64 -16 -97
22 -297 -35 -350 -100 -15 -20 -28 -23 -83 -23 -47 -1 -78 -7 -112 -24 -60
-29 -144 -103 -152 -135 -5 -21 -12 -25 -44 -24 -47 0 -110 -30 -156 -76 l-34
-34 -39 41 c-22 23 -62 71 -89 107 -61 82 -90 107 -134 120 -54 15 -85 12
-108 -12 -34 -37 -42 -72 -52 -228 -6 -81 -16 -183 -24 -226 -20 -114 -15
-162 18 -191 38 -33 83 -30 165 12 37 19 88 38 113 41 l44 6 12 -38 c10 -34 9
-41 -8 -59 -11 -12 -25 -48 -31 -81 -6 -32 -21 -79 -34 -104 -59 -115 -63
-313 -8 -397 18 -27 84 -59 139 -68 40 -6 40 -7 52 -63 24 -118 119 -276 180
-301 26 -11 29 -17 31 -60 2 -58 31 -149 63 -194 67 -95 169 -153 303 -171 79
-10 86 -13 110 -45 102 -139 316 -214 448 -158 15 7 27 16 27 21 0 12 84 -2
122 -22 51 -26 238 -22 345 7 96 27 184 78 213 126 18 30 26 34 53 31 18 -2
48 5 70 16 37 19 137 112 137 128 0 5 14 11 31 15 106 24 269 299 269 456 0
50 3 60 25 76 55 40 94 201 61 246 -11 14 -12 26 -5 50 15 48 12 107 -5 126
-9 10 -16 36 -16 59 0 33 4 42 18 42 28 0 80 37 97 69 28 56 18 116 -38 217
-30 54 -70 84 -111 84 -31 0 -33 13 -6 48 14 17 20 39 20 66 -1 23 6 61 15 86
19 50 15 123 -9 181 -17 40 -75 103 -116 124 -16 8 -31 23 -35 34 -3 10 -14
26 -25 36 -27 24 -131 25 -193 1 l-46 -17 -48 32 c-26 18 -66 52 -88 75 -30
31 -55 46 -99 58 -82 24 -254 46 -363 46 -82 0 -96 3 -129 25 -31 21 -48 25
-103 24 -36 -1 -75 -3 -86 -6z"/>
</g>
</svg>
