<?xml version="1.0" standalone="no"?>
<!DOCTYPE svg PUBLIC "-//W3C//DTD SVG 20010904//EN"
 "http://www.w3.org/TR/2001/REC-SVG-20010904/DTD/svg10.dtd">
<svg version="1.0" xmlns="http://www.w3.org/2000/svg"
 width="2120.000000pt" height="2120.000000pt" viewBox="0 0 2120.000000 2120.000000"
 preserveAspectRatio="xMidYMid meet">
<metadata>
Created by potrace 1.14, written by Peter Selinger 2001-2017
</metadata>
<g transform="translate(0.000000,2120.000000) scale(0.100000,-0.100000)"
fill="#000000" stroke="none">
<path d="M1115 14639 c-6 -17 -9 -18 -23 -7 -10 8 -13 9 -9 1 4 -7 -1 -14 -13
-18 -11 -3 -20 -11 -20 -16 0 -6 -4 -7 -10 -4 -6 4 -7 -1 -3 -11 4 -11 2 -15
-4 -11 -5 3 -20 -5 -31 -18 -12 -14 -18 -25 -12 -25 5 0 7 -7 4 -15 -4 -8 -10
-13 -14 -10 -5 3 -10 -6 -12 -20 -2 -14 -7 -25 -13 -25 -14 2 -23 -44 -11 -52
7 -5 5 -8 -4 -8 -12 0 -13 -2 -1 -9 11 -7 9 -10 -8 -16 -12 -3 -21 -12 -20
-18 3 -29 -4 -32 -68 -31 -57 1 -70 -2 -86 -20 -10 -12 -15 -15 -12 -8 6 11 3
12 -14 3 -11 -7 -21 -16 -21 -21 0 -12 -22 -9 -32 5 -4 6 -8 2 -8 -8 0 -10 -6
-20 -14 -23 -8 -3 -17 -12 -20 -20 -4 -9 -2 -12 5 -8 8 4 7 0 0 -15 -7 -11
-14 -21 -17 -21 -3 0 -2 5 2 12 4 6 3 8 -4 4 -6 -3 -9 -16 -7 -27 2 -11 -2
-22 -9 -25 -8 -3 -14 -22 -14 -46 -1 -22 -3 -43 -6 -46 -3 -3 -1 -11 5 -19 7
-8 8 -13 1 -13 -14 0 -2 -43 15 -53 11 -7 12 -12 2 -23 -10 -12 -8 -16 10 -21
13 -3 20 -11 17 -19 -3 -7 -1 -16 5 -19 5 -4 6 -11 3 -17 -4 -6 -2 -8 3 -5 6
4 21 -7 33 -23 12 -16 26 -27 31 -24 5 3 6 -3 2 -12 -5 -13 -3 -16 9 -11 20 7
31 -16 15 -32 -9 -9 -6 -13 11 -17 12 -4 19 -10 16 -15 -3 -5 1 -9 8 -9 8 0
14 -10 15 -22 1 -12 8 -25 15 -29 10 -5 13 -38 12 -126 -2 -141 -1 -133 -16
-133 -14 0 -16 -89 -3 -109 3 -6 0 -11 -7 -11 -9 0 -9 -3 2 -10 12 -8 12 -10
1 -10 -10 0 -11 -3 -2 -14 9 -11 8 -18 -6 -33 -11 -11 -18 -32 -18 -55 1 -21
-4 -38 -10 -38 -7 0 -7 -3 0 -8 14 -10 15 -195 1 -204 -7 -5 -7 -8 -1 -8 6 0
11 -16 12 -35 0 -22 -3 -32 -10 -28 -6 4 -7 1 -1 -8 13 -21 15 -81 2 -73 -7 5
-8 2 -2 -7 14 -23 16 -59 2 -59 -9 0 -9 -3 -2 -8 13 -9 13 -75 -1 -84 -7 -5
-7 -8 1 -8 6 0 10 -23 10 -55 0 -32 -4 -55 -10 -55 -8 0 -8 -3 -1 -8 14 -10
15 -195 1 -204 -7 -5 -7 -8 -1 -8 6 0 11 -20 12 -45 2 -34 -1 -44 -10 -38 -9
5 -9 3 -1 -8 12 -16 13 -78 1 -96 -4 -6 -3 -14 3 -18 5 -3 10 -15 10 -26 0
-13 -4 -18 -12 -13 -7 5 -8 3 -2 -7 13 -20 12 -89 0 -89 -7 0 -8 -3 -1 -8 6
-4 12 -20 13 -36 3 -21 1 -26 -10 -20 -10 6 -11 5 -2 -7 12 -16 13 -78 1 -96
-4 -6 -3 -14 3 -18 5 -3 10 -15 10 -26 0 -13 -4 -18 -12 -13 -7 5 -8 3 -2 -7
13 -20 12 -89 0 -89 -7 0 -8 -3 -1 -8 15 -11 17 -64 2 -55 -9 5 -9 3 -1 -8 15
-20 18 -82 3 -73 -8 5 -9 3 -3 -7 13 -20 12 -89 0 -89 -8 0 -8 -3 -1 -8 14
-10 15 -195 1 -204 -7 -5 -7 -8 -1 -8 6 0 12 -11 13 -26 1 -17 -2 -23 -10 -18
-7 5 -8 3 -2 -7 12 -19 13 -68 2 -75 -5 -3 -4 -12 3 -20 6 -8 8 -14 4 -14 -5
0 -1 -8 7 -17 17 -20 30 -73 17 -73 -4 0 -4 -13 1 -30 5 -19 5 -30 -1 -30 -6
0 -7 -5 -4 -10 4 -6 11 -8 16 -5 9 6 10 1 13 -98 1 -37 7 -61 16 -67 13 -8 22
-50 11 -50 -3 0 -6 -11 -6 -25 0 -14 5 -25 10 -25 6 0 3 -5 -5 -10 -9 -6 -11
-10 -3 -10 7 0 10 -7 6 -16 -3 -10 0 -22 8 -28 15 -12 24 -100 8 -91 -17 11
-9 -4 17 -32 14 -15 22 -29 17 -30 -5 -2 -6 -30 -3 -63 3 -33 3 -60 -1 -60 -3
0 -3 -18 1 -40 4 -22 4 -40 -1 -40 -4 0 -4 -13 1 -30 5 -16 6 -30 2 -30 -4 0
-6 -44 -5 -97 1 -54 3 -98 3 -98 1 0 3 -10 4 -22 2 -13 -2 -23 -7 -23 -5 0 -4
-7 3 -15 10 -12 10 -15 -1 -15 -11 0 -11 -2 1 -10 11 -7 11 -10 2 -10 -10 0
-10 -5 -2 -20 8 -15 8 -20 -2 -20 -9 0 -9 -3 2 -10 13 -9 13 -10 0 -10 -13 0
-13 -1 0 -10 13 -9 13 -10 0 -10 -13 0 -13 -1 0 -10 11 -7 12 -10 2 -10 -18 0
11 -30 30 -30 8 0 9 -3 3 -8 -13 -9 -13 -52 -1 -71 6 -9 5 -12 -1 -8 -6 4 -9
-13 -8 -46 0 -29 -4 -58 -9 -66 -8 -11 -8 -13 2 -7 8 5 12 0 12 -13 0 -12 5
-21 11 -21 5 0 7 -4 4 -10 -3 -5 0 -10 7 -10 10 0 10 -2 -1 -9 -11 -7 -11 -9
0 -14 10 -4 10 -6 2 -6 -9 -1 -10 -8 -4 -24 5 -14 5 -30 0 -40 -7 -11 -6 -17
1 -17 6 0 8 -5 3 -12 -11 -19 -12 -38 -2 -38 5 0 9 -7 9 -15 0 -8 5 -15 10
-15 6 0 10 -7 10 -16 0 -9 -5 -12 -12 -8 -10 6 -10 4 -2 -7 6 -8 10 -24 8 -37
-3 -16 0 -21 8 -16 10 5 10 4 1 -6 -6 -7 -9 -19 -6 -28 5 -11 3 -13 -8 -7 -11
7 -12 6 -3 -6 15 -20 16 -61 1 -53 -9 5 -9 4 0 -6 6 -7 9 -19 6 -28 -5 -11 -3
-13 8 -7 12 7 12 6 1 -7 -10 -13 -10 -19 3 -31 13 -14 15 -74 15 -462 0 -295
-3 -444 -10 -440 -9 6 -15 -8 -11 -29 1 -5 -4 -13 -11 -17 -10 -7 -10 -9 -1
-9 8 0 11 -11 9 -30 -2 -20 2 -34 13 -40 9 -5 12 -10 6 -10 -5 0 -3 -5 5 -10
13 -9 13 -10 0 -10 -13 0 -13 -1 0 -10 13 -9 13 -10 0 -10 -13 0 -13 -1 0 -10
9 -6 11 -10 3 -10 -7 0 -10 -7 -7 -15 4 -8 12 -15 20 -15 8 0 13 -3 13 -7 -3
-19 2 -33 12 -33 5 0 7 5 3 12 -4 6 -3 8 3 5 6 -4 9 -18 7 -33 -2 -18 1 -24
12 -20 7 3 26 -7 40 -21 17 -17 38 -27 60 -27 27 -1 34 -5 34 -21 0 -17 2 -17
10 -5 7 11 10 11 10 2 0 -9 5 -10 19 -3 10 6 21 8 24 5 14 -14 56 -10 60 6 3
13 13 17 41 15 20 -2 34 1 30 6 -5 9 0 11 29 13 6 1 24 14 39 30 18 20 33 27
46 24 15 -4 19 -2 15 8 -5 14 3 17 39 17 10 0 16 3 13 6 -2 4 5 13 15 21 10 8
17 17 14 22 -8 13 21 9 35 -4 7 -7 12 -8 11 -3 -4 19 0 38 7 32 3 -4 12 -2 20
4 10 9 13 8 14 -2 0 -8 4 -5 8 6 5 11 12 20 17 20 5 0 15 4 23 9 10 7 12 5 7
-5 -4 -8 -1 -6 8 5 8 10 19 15 25 11 6 -3 11 -1 11 5 0 6 5 8 10 5 6 -4 10 -3
9 2 -3 19 2 23 20 14 15 -9 18 -7 17 7 0 10 6 17 15 17 21 0 69 36 63 47 -3 4
6 8 21 8 14 0 28 7 31 15 4 8 10 12 15 9 5 -3 9 -1 9 3 0 5 9 14 21 21 17 11
20 11 14 0 -4 -8 -1 -7 7 2 8 8 20 21 28 29 12 11 12 12 1 6 -9 -5 -12 -4 -8
3 4 5 18 9 32 8 13 -2 22 1 19 5 -3 5 0 9 6 9 17 0 40 26 32 35 -4 5 1 5 10 2
12 -4 30 7 58 34 36 36 52 45 82 48 5 1 7 7 5 14 -1 6 4 11 11 10 6 -2 12 3
12 11 0 8 9 12 25 11 13 -2 24 0 24 3 -3 20 3 32 15 32 8 0 17 6 20 13 5 9 7
9 12 -1 5 -10 9 -9 19 5 7 10 18 19 24 19 6 1 16 2 22 3 5 0 8 5 5 10 -3 5 1
12 10 15 10 4 13 2 8 -7 -6 -9 -5 -9 8 0 8 7 18 9 22 5 4 -4 6 0 4 8 -2 8 4
15 12 15 8 0 14 6 13 13 -2 7 7 12 20 12 12 0 31 10 41 21 15 18 20 19 27 8 8
-13 13 -6 10 14 0 4 8 7 18 7 11 0 27 7 35 16 9 8 20 12 26 9 5 -3 10 -1 10 5
0 6 5 8 10 5 6 -3 10 1 10 9 0 8 5 18 12 22 7 5 9 2 4 -7 -4 -8 2 -3 13 11 14
17 21 20 21 10 0 -10 9 -4 26 15 14 17 30 31 35 31 5 1 12 3 17 4 4 1 10 2 15
1 4 0 7 2 7 7 0 4 10 18 21 32 11 14 17 18 13 10 -7 -13 -5 -13 8 -2 13 10 17
10 21 0 4 -11 6 -11 6 0 2 22 39 55 55 49 10 -4 16 -1 16 8 0 8 7 15 16 15 8
0 12 5 9 10 -3 6 -1 11 4 11 6 1 16 3 21 4 6 1 15 3 20 4 6 0 10 9 11 19 0 10
3 12 6 4 3 -8 14 -1 31 21 18 22 34 31 47 29 11 -2 17 -1 14 3 -8 7 37 55 52
55 6 0 7 5 3 12 -5 8 -2 9 10 5 10 -4 24 1 34 11 10 10 24 16 30 14 7 -2 12 1
12 8 0 6 5 8 10 5 6 -3 10 -1 10 5 0 7 6 10 14 7 8 -3 24 7 37 24 12 16 29 27
36 25 7 -3 18 3 25 13 6 11 17 17 24 14 16 -6 55 27 47 40 -4 6 5 8 20 5 15
-3 24 -2 22 2 -2 4 7 13 20 20 13 7 22 17 19 22 -5 7 10 12 28 9 12 -2 48 32
48 45 0 6 11 10 25 9 14 -2 23 0 20 5 -6 9 23 22 35 15 4 -3 10 2 14 10 3 8
15 15 26 15 11 0 23 6 26 14 3 8 13 13 22 12 9 -2 22 4 28 12 6 9 29 15 57 16
29 0 49 6 52 14 3 7 9 10 15 7 5 -3 10 0 10 7 0 9 3 9 10 -2 8 -12 10 -12 10
-1 0 11 3 11 14 2 12 -10 19 -8 35 8 13 13 27 18 42 14 14 -4 25 0 31 11 5 9
13 14 18 11 5 -3 11 -1 14 4 3 5 15 7 26 4 11 -3 20 -1 20 5 0 15 37 21 51 8
9 -8 10 -8 6 0 -4 7 2 14 14 17 12 3 18 10 14 16 -4 8 2 8 19 1 16 -6 27 -6
31 1 4 5 11 7 16 4 5 -3 6 0 3 8 -4 11 1 13 22 9 19 -3 25 -1 20 7 -7 11 5 15
33 12 8 -2 10 2 5 11 -6 11 -5 11 8 0 14 -11 18 -10 30 5 8 12 25 18 46 18 20
-1 32 4 32 12 0 16 12 17 29 1 10 -11 11 -9 5 5 -4 12 -2 17 7 15 8 -2 13 2
12 7 -1 6 13 9 30 9 20 -1 39 6 51 18 13 14 21 17 29 9 13 -13 30 -15 23 -2
-4 5 4 7 15 4 14 -4 25 0 31 12 8 14 12 15 19 4 7 -11 9 -11 9 -1 0 7 4 11 9
7 5 -3 15 1 23 8 7 8 26 13 41 13 15 -1 35 6 44 16 13 15 19 16 31 5 12 -9 14
-9 9 0 -8 12 30 39 40 29 3 -3 13 3 22 13 9 10 24 17 34 15 12 -2 17 2 13 11
-3 8 0 17 6 21 7 4 8 3 4 -4 -4 -7 -3 -12 3 -12 5 0 13 5 16 10 4 6 11 7 17 4
7 -5 9 -2 6 8 -5 11 0 14 19 12 14 -1 27 4 30 12 3 9 13 12 25 8 14 -4 18 -2
14 5 -5 7 -1 8 10 4 10 -4 22 0 29 11 13 17 35 18 46 2 4 -5 12 1 19 13 8 16
20 22 38 21 51 -4 72 0 72 13 0 8 16 12 50 11 27 -1 47 2 44 7 -8 14 39 28 54
17 8 -7 16 -7 25 1 10 8 21 5 45 -13 18 -12 29 -26 25 -29 -3 -4 1 -7 10 -7
10 0 17 -4 17 -10 0 -12 60 -70 72 -70 5 0 6 -4 3 -10 -3 -5 1 -10 10 -10 9 0
13 -4 10 -10 -3 -5 1 -10 10 -10 8 0 21 -11 27 -25 6 -13 19 -27 30 -31 10 -3
16 -10 13 -15 -4 -5 1 -9 9 -9 9 0 16 -8 16 -17 0 -9 3 -14 6 -11 6 7 54 -39
54 -52 0 -5 9 -12 20 -15 11 -3 20 -13 20 -21 0 -8 4 -13 9 -10 5 3 12 -1 15
-10 3 -8 11 -12 17 -8 8 5 9 3 4 -6 -9 -15 11 -30 43 -30 13 0 21 -4 18 -8 -3
-5 4 -14 14 -22 10 -8 16 -18 13 -23 -3 -5 4 -4 15 2 16 8 21 7 26 -5 3 -8 11
-12 16 -9 6 4 10 3 9 -2 -3 -20 2 -34 11 -28 5 3 10 -1 10 -9 0 -9 9 -16 20
-16 11 0 20 -4 20 -10 0 -5 5 -10 12 -10 15 0 93 -83 89 -95 -1 -5 1 -7 5 -3
4 5 14 -1 21 -12 8 -11 19 -18 24 -15 5 4 9 1 9 -5 0 -6 4 -9 10 -5 5 3 17 -6
26 -20 9 -14 23 -25 31 -25 8 0 12 -4 9 -9 -3 -5 4 -11 15 -14 14 -4 20 -11
16 -21 -4 -9 -3 -15 1 -15 20 3 33 -2 27 -11 -3 -5 1 -10 9 -10 9 0 15 -6 14
-12 -2 -7 5 -12 14 -12 10 1 16 -2 13 -6 -2 -4 7 -17 20 -28 14 -12 25 -27 25
-33 0 -6 7 -8 16 -5 8 3 13 2 10 -3 -8 -12 19 -33 30 -23 4 4 3 0 -4 -9 -9
-13 -8 -20 8 -36 10 -12 16 -24 12 -28 -4 -4 -2 -6 3 -5 22 5 35 -1 35 -14 0
-8 8 -21 18 -28 10 -7 25 -23 33 -34 7 -12 19 -22 24 -24 6 -1 9 -6 7 -12 -1
-5 2 -7 8 -3 5 3 10 1 10 -5 0 -6 4 -8 10 -5 5 3 10 1 10 -5 0 -15 96 -110
111 -110 7 0 10 -3 7 -6 -12 -11 67 -80 86 -75 13 3 17 0 12 -7 -4 -7 -1 -12
8 -12 9 0 16 -7 16 -17 0 -9 3 -14 6 -10 8 8 54 -34 54 -50 0 -11 5 -11 20 -3
11 6 19 7 18 3 -5 -15 72 -85 87 -79 8 3 17 -3 21 -16 4 -15 8 -17 14 -8 5 9
9 9 14 1 4 -6 13 -8 19 -5 7 4 9 4 5 -1 -5 -5 1 -15 12 -22 11 -8 18 -18 15
-23 -6 -10 15 -8 33 4 7 4 11 4 10 -1 -4 -16 27 -53 45 -53 21 0 69 -45 59
-56 -4 -4 -1 -4 6 0 16 9 54 -3 47 -15 -4 -5 1 -9 10 -9 9 0 13 -4 10 -10 -3
-5 3 -10 14 -10 11 0 27 -7 35 -16 9 -8 21 -12 26 -9 6 4 20 -4 31 -17 11 -13
17 -17 14 -10 -6 11 -3 11 14 0 12 -7 21 -15 21 -18 0 -3 14 -6 31 -6 17 -1
34 -6 38 -12 3 -6 22 -12 41 -15 19 -2 34 -9 33 -15 -2 -6 4 -9 12 -6 9 4 15
0 15 -7 0 -10 2 -11 8 -2 8 12 29 13 49 0 6 -4 13 -1 16 5 3 9 10 7 23 -7 19
-20 68 -26 90 -13 6 4 21 -2 34 -14 18 -17 26 -19 41 -10 12 8 20 8 24 2 4 -6
10 -8 15 -5 5 3 13 -3 19 -12 6 -10 11 -14 11 -9 0 5 7 3 15 -4 12 -10 15 -10
15 0 0 9 5 8 18 -3 10 -10 26 -17 36 -17 10 0 14 -5 10 -12 -5 -7 -3 -8 7 -2
23 14 39 13 39 -2 0 -9 4 -13 9 -9 5 3 12 1 16 -5 4 -6 10 -8 15 -5 5 3 13 -2
18 -11 5 -9 15 -14 23 -12 8 3 22 1 31 -3 11 -6 19 -5 24 3 5 7 3 8 -6 3 -9
-5 -11 -4 -6 4 9 14 26 5 26 -15 0 -12 19 -19 44 -15 17 3 46 -11 41 -20 -3
-5 1 -6 9 -3 10 4 16 1 16 -7 0 -9 3 -10 8 -4 13 18 31 15 37 -5 4 -12 12 -17
22 -13 9 4 19 -1 25 -11 5 -9 13 -14 19 -11 5 4 9 -1 9 -9 0 -16 11 -20 39
-17 7 2 10 -2 6 -8 -5 -10 14 -16 37 -12 4 0 12 -8 18 -19 6 -11 16 -17 25
-14 8 4 15 1 15 -6 0 -6 5 -8 10 -5 6 3 10 1 10 -5 0 -6 4 -9 9 -6 4 3 18 -3
30 -13 13 -11 30 -16 45 -14 18 4 27 -1 36 -17 9 -16 14 -19 25 -10 10 9 15 6
20 -10 5 -15 11 -18 22 -11 21 11 53 2 53 -15 0 -8 3 -13 8 -13 25 4 52 -3 50
-13 -2 -8 5 -12 15 -10 9 2 20 -3 23 -11 3 -9 17 -13 35 -12 20 2 34 -4 43
-17 9 -13 16 -16 21 -8 4 7 13 4 25 -10 10 -12 21 -21 24 -21 24 3 36 -1 31
-9 -4 -6 5 -10 20 -10 14 0 28 -6 31 -14 3 -9 12 -12 21 -9 11 4 14 2 9 -5 -5
-8 -2 -10 8 -6 10 4 16 1 16 -10 0 -10 5 -13 16 -9 10 4 22 -1 29 -11 7 -9 17
-16 21 -15 21 4 35 -2 29 -11 -3 -5 4 -10 15 -10 12 0 35 -14 51 -31 16 -17
29 -25 29 -18 0 7 10 3 24 -10 14 -13 29 -20 34 -17 6 3 13 -1 16 -10 4 -9 13
-14 21 -10 8 3 15 1 15 -5 0 -6 7 -9 15 -5 8 3 14 2 12 -2 -1 -4 2 -8 7 -9 5
-1 13 -7 17 -15 7 -10 9 -10 9 2 1 11 4 9 13 -5 7 -12 21 -21 32 -21 11 0 19
-6 17 -13 -2 -9 4 -12 18 -8 14 3 24 -1 31 -14 5 -11 14 -17 20 -14 8 6 13 -8
10 -28 -1 -5 6 -4 16 1 18 11 34 0 46 -32 4 -10 13 -16 22 -12 8 3 21 -1 29
-9 7 -8 16 -11 20 -8 3 4 6 1 6 -5 0 -6 7 -9 15 -6 9 4 15 0 15 -9 0 -9 8 -13
25 -12 14 2 23 -1 19 -6 -3 -5 0 -9 6 -9 6 0 9 -4 6 -8 -6 -10 30 -9 40 1 4 4
15 -3 25 -14 11 -12 25 -19 34 -15 9 3 15 0 15 -10 0 -8 4 -12 10 -9 5 3 10 2
10 -4 0 -6 7 -8 15 -5 9 4 18 -1 21 -11 4 -9 13 -14 22 -10 8 3 19 0 24 -7 6
-10 8 -10 8 1 0 10 8 7 25 -9 17 -16 25 -19 25 -10 0 9 6 5 16 -8 8 -12 21
-22 27 -21 32 4 57 -2 57 -15 0 -9 8 -12 24 -9 13 3 34 -2 47 -10 13 -8 32
-13 41 -12 10 2 21 -1 24 -6 4 -6 10 -6 17 0 18 15 28 14 41 -4 6 -9 21 -16
34 -15 49 1 58 0 77 -4 11 -2 19 -8 18 -14 -1 -6 26 -9 68 -8 44 1 73 -2 77
-10 8 -14 72 -24 72 -12 0 5 5 6 12 2 6 -4 36 -6 66 -5 33 2 52 -1 48 -7 -9
-15 13 -20 84 -17 36 1 73 -2 84 -7 13 -7 16 -7 12 1 -4 7 6 9 31 5 21 -2 41
-11 46 -19 6 -12 13 -13 28 -5 14 8 19 7 19 -1 0 -8 4 -9 13 0 8 6 17 8 20 4
9 -8 57 -11 57 -2 0 3 7 6 15 6 8 0 15 -4 15 -8 0 -10 34 -6 42 6 5 6 8 5 8
-2 0 -7 7 -10 15 -7 9 4 15 0 15 -9 0 -11 11 -15 45 -15 32 0 43 3 38 11 -5 9
-3 9 8 1 8 -6 38 -11 67 -10 29 1 56 -2 59 -7 2 -4 10 -4 16 1 7 4 47 8 89 7
42 0 74 3 72 7 -5 7 10 12 29 9 4 0 7 4 7 10 0 8 4 8 13 0 10 -8 17 -7 25 1 8
8 12 8 12 1 0 -13 32 -12 42 2 5 6 8 5 8 -4 0 -11 3 -11 17 0 13 11 15 11 9 1
-7 -11 -4 -11 12 -1 12 7 18 17 15 21 -6 10 36 6 55 -5 6 -5 12 -4 12 2 0 5 9
8 21 6 11 -2 32 3 45 11 12 9 28 13 34 9 5 -3 10 0 10 7 0 10 2 10 8 1 5 -7
13 -9 21 -3 8 4 20 6 28 3 7 -3 13 1 13 10 0 10 9 13 30 11 19 -2 33 1 36 10
3 7 15 14 27 14 38 2 62 9 60 19 -1 6 10 9 25 8 32 -2 63 15 54 30 -3 5 2 4
11 -4 12 -9 17 -10 17 -2 0 8 5 9 19 1 14 -7 22 -7 26 0 5 8 11 7 21 -1 10 -8
14 -8 14 0 0 7 8 8 23 2 12 -4 28 -6 36 -3 8 2 18 -3 23 -12 5 -9 13 -14 18
-11 5 3 11 1 15 -5 4 -6 12 -7 18 -3 19 12 40 13 54 1 9 -7 13 -7 13 2 0 6 5
10 11 8 6 -2 10 -8 9 -13 -2 -15 40 -22 76 -14 18 3 38 3 45 -2 7 -4 19 -3 26
3 9 7 13 7 13 -1 0 -7 5 -9 10 -6 13 8 52 -4 46 -14 -3 -4 46 -7 108 -7 63 1
112 -2 110 -5 -2 -4 3 -12 11 -19 12 -10 15 -10 15 1 0 9 3 10 8 4 8 -12 72
-14 72 -2 0 4 6 5 13 0 6 -4 22 -6 34 -5 14 2 23 -4 28 -17 7 -22 20 -27 30
-12 8 14 61 5 57 -9 -1 -6 2 -9 7 -6 5 4 13 1 17 -5 4 -8 9 -7 15 2 7 12 9 12
9 0 0 -11 3 -11 15 -1 12 10 15 10 15 0 0 -10 3 -10 15 0 11 9 15 9 15 1 0 -7
5 -9 10 -6 6 3 13 0 16 -9 4 -11 19 -14 65 -12 32 2 56 0 54 -4 -3 -4 2 -13
10 -20 12 -10 15 -10 15 0 0 10 3 10 15 0 11 -9 15 -9 15 -1 0 7 5 9 11 5 18
-11 169 -10 173 1 3 7 5 7 5 0 1 -6 34 -9 81 -9 57 2 80 -2 80 -10 0 -7 10
-12 23 -11 12 1 30 -2 41 -7 12 -7 16 -7 12 0 -6 11 79 11 90 0 3 -4 15 -3 25
3 13 7 26 6 40 -2 15 -8 19 -8 15 0 -10 16 10 13 27 -4 18 -17 115 -26 121
-10 3 7 5 7 5 0 1 -11 74 -11 91 0 6 3 10 1 10 -4 0 -13 22 -10 32 4 5 6 8 5
8 -3 0 -10 5 -10 20 -2 11 6 20 7 20 2 0 -12 43 -9 52 3 5 7 8 7 8 0 0 -11 73
-11 90 0 6 3 10 1 10 -4 0 -13 22 -10 32 4 5 6 8 5 8 -3 0 -10 5 -10 20 -2 11
6 20 7 20 2 0 -10 54 -7 71 3 5 4 9 1 9 -4 0 -13 22 -10 32 4 5 6 8 5 8 -3 0
-10 5 -10 20 -2 11 6 20 7 20 2 0 -10 54 -7 71 3 5 4 9 1 9 -4 0 -13 22 -10
32 4 5 6 8 5 8 -3 0 -10 5 -10 20 -2 11 6 20 7 20 2 0 -10 54 -7 71 3 5 4 9 1
9 -4 0 -13 22 -10 32 4 5 6 8 5 8 -3 0 -10 5 -10 20 -2 11 6 20 7 20 2 0 -12
43 -9 52 3 5 7 8 7 8 0 0 -11 73 -11 90 0 6 3 10 1 10 -4 0 -13 22 -10 32 4 5
6 8 5 8 -3 0 -10 5 -10 20 -2 11 6 20 7 20 2 0 -12 43 -9 52 3 5 6 8 6 8 -1 0
-15 40 -10 50 6 10 16 70 21 88 8 7 -6 12 -7 12 -1 0 11 79 11 97 0 6 -4 15
-2 19 4 4 8 9 7 15 -2 5 -8 9 -9 9 -3 0 7 21 10 55 8 30 -1 53 1 52 6 -1 4 1
7 4 7 3 -1 13 4 21 11 13 10 17 10 21 0 4 -10 8 -10 16 2 8 12 11 12 11 1 0
-11 3 -11 15 -1 8 7 15 8 15 3 0 -13 93 -5 102 10 9 14 170 16 180 2 4 -6 8
-2 8 8 0 16 10 20 53 20 9 0 17 3 17 7 0 4 7 7 15 7 8 0 15 -4 15 -9 0 -5 10
-4 21 3 15 8 19 8 15 0 -12 -19 2 -12 24 11 16 18 23 20 29 9 5 -8 11 -9 15
-3 3 5 17 8 31 7 17 -2 25 2 25 12 0 11 10 14 40 12 25 -2 47 2 58 12 9 8 29
14 44 12 15 -1 31 3 34 9 5 7 2 8 -6 3 -9 -5 -11 -4 -6 4 4 6 11 9 16 6 5 -3
12 0 16 6 5 8 9 7 15 -2 6 -11 12 -9 28 5 11 10 27 16 36 12 11 -4 14 -2 9 6
-5 8 -2 9 9 5 9 -3 23 1 32 10 9 8 26 13 39 11 15 -3 29 2 37 13 9 12 21 16
40 12 20 -4 30 0 42 17 10 14 17 18 22 10 5 -8 11 -8 21 1 8 6 14 8 14 3 0 -4
7 1 15 12 10 13 14 14 15 5 0 -10 3 -11 13 -2 8 6 17 8 20 4 4 -3 16 4 27 17
13 15 20 18 20 9 0 -11 2 -11 10 1 7 11 10 12 10 2 0 -10 4 -10 16 2 15 16 27
20 50 17 7 -1 14 9 18 21 5 20 8 21 17 8 7 -10 12 -11 15 -4 3 7 14 9 26 6 13
-3 19 -1 15 5 -4 6 0 13 8 17 8 3 15 1 15 -4 0 -5 9 -2 20 8 12 9 23 16 26 14
3 -2 13 5 22 15 11 12 29 18 49 17 19 0 31 4 30 10 -1 6 6 10 16 8 9 -2 17 2
17 9 0 8 4 8 15 -1 12 -10 16 -9 21 3 7 18 42 29 50 16 3 -6 10 -6 17 -1 7 5
20 8 29 7 10 -2 16 2 15 8 -1 7 13 13 33 15 19 2 38 10 43 17 4 8 14 12 21 9
8 -3 19 4 26 15 8 17 15 19 29 11 15 -8 20 -5 24 11 3 12 10 18 16 14 6 -3 19
-1 28 4 10 6 14 11 10 11 -4 0 -2 6 5 14 7 8 16 12 21 9 4 -2 7 1 7 7 0 7 6
10 13 7 7 -3 19 4 26 14 6 11 17 17 24 13 7 -4 9 -4 5 1 -9 9 16 35 34 35 10
0 9 3 -2 10 -10 7 -11 10 -2 10 6 0 22 11 34 25 11 13 26 22 31 18 6 -3 7 -1
3 5 -4 7 -1 12 8 12 9 0 13 7 11 19 -3 14 1 18 11 14 8 -3 14 1 14 11 0 9 6
15 13 13 6 -1 11 5 9 13 -2 8 0 12 4 8 13 -13 32 12 26 34 -3 14 -1 19 6 14 6
-3 13 3 17 14 3 11 11 20 17 20 5 0 8 7 4 15 -3 9 0 15 10 15 8 0 13 4 9 9 -3
5 -1 12 5 16 6 4 8 11 5 16 -4 5 1 12 9 15 9 3 14 10 11 14 -3 5 -1 12 5 15 8
5 8 11 0 20 -9 11 -7 17 8 26 11 7 18 18 15 25 -2 7 4 21 14 31 14 14 17 26
12 46 -4 15 -3 27 2 27 4 0 5 8 2 17 -5 12 -2 15 8 11 11 -4 14 4 14 41 -1 34
4 51 19 64 12 10 15 16 9 12 -16 -8 -17 11 -2 21 8 4 7 9 -2 15 -12 7 -12 9 0
9 9 0 10 4 3 13 -10 12 -1 51 16 61 5 3 8 30 7 60 -2 36 2 54 9 53 7 -1 13 31
16 91 3 56 1 92 -5 92 -5 0 0 6 11 14 16 12 20 24 18 70 -1 36 3 56 10 56 7 0
7 3 1 8 -14 10 -16 114 -2 105 6 -4 7 -1 1 8 -5 8 -10 25 -12 37 -2 17 1 22
10 16 10 -6 10 -4 2 7 -15 20 -11 45 6 41 8 -2 12 0 8 4 -4 4 -3 13 3 21 9 9
8 13 0 13 -9 0 -9 5 -1 20 7 13 7 20 1 20 -7 0 -7 9 -2 22 4 13 5 35 0 50 -5
20 -4 28 5 28 8 0 20 8 27 17 12 14 12 16 0 8 -11 -6 -13 -4 -8 8 4 10 1 17
-6 17 -8 0 -8 3 -2 8 12 8 14 81 2 99 -4 6 -3 14 3 18 6 4 8 11 5 16 -4 5 1 9
10 9 9 0 14 4 10 9 -3 5 -1 13 5 16 8 5 7 11 -1 21 -6 8 -8 14 -3 14 5 0 7 38
4 84 -3 46 -3 84 0 84 22 -2 28 5 24 28 -3 18 -1 23 7 18 8 -5 9 -3 3 7 -11
17 -12 629 -2 635 5 3 5 11 1 17 -12 20 -14 49 -3 62 5 6 7 15 2 19 -4 4 -7
126 -7 271 0 145 1 262 4 259 2 -2 11 5 18 16 11 15 23 19 51 17 20 -2 47 0
59 4 17 6 26 3 35 -10 10 -14 25 -18 68 -17 30 1 58 -3 63 -9 4 -6 10 -5 16 4
6 10 13 11 29 2 14 -8 23 -8 27 -1 8 12 37 9 48 -5 4 -6 10 -5 16 4 6 10 13
10 28 3 14 -8 23 -8 31 0 9 9 12 8 12 -3 0 -11 2 -12 9 0 6 10 13 11 29 2 15
-8 23 -8 28 0 4 8 9 7 15 -2 7 -11 9 -11 9 -1 0 8 8 10 25 6 16 -4 34 0 50 10
14 9 30 14 34 11 5 -3 12 1 14 7 3 7 6 4 6 -7 1 -15 3 -17 10 -6 6 9 22 12 50
9 29 -2 41 0 41 9 0 13 12 17 38 14 6 -1 12 5 12 13 0 8 8 13 17 12 18 -3 44
15 37 25 -2 3 8 5 21 3 16 -1 25 3 25 12 0 8 7 14 15 14 8 0 15 7 15 16 0 8 5
12 10 9 5 -3 10 1 10 9 0 9 6 15 13 13 6 -1 11 4 10 11 -2 6 4 12 12 12 8 0
15 4 15 9 0 15 61 72 71 66 5 -4 9 -3 8 2 -3 20 2 34 11 28 6 -3 10 5 10 19 0
16 10 32 30 46 17 12 28 26 24 31 -3 5 0 8 8 7 7 -2 14 4 14 12 1 8 2 21 3 28
0 7 6 10 11 7 5 -3 10 1 10 10 0 9 5 13 10 10 9 -6 15 8 11 29 -1 4 5 13 12
20 19 15 29 46 15 46 -7 0 -7 4 1 13 6 8 7 17 3 21 -4 4 0 6 8 4 16 -3 21 23
5 34 -5 4 0 8 11 8 22 0 38 22 26 34 -9 10 -10 46 0 46 5 0 6 5 3 10 -3 6 1
10 9 10 9 0 16 5 16 11 0 5 -6 7 -12 3 -10 -5 -10 -4 -1 6 6 7 9 19 6 28 -5
11 -3 13 8 7 11 -7 12 -6 3 6 -17 22 -14 52 9 77 13 14 16 22 8 22 -11 0 -11
3 0 17 8 9 14 17 14 18 0 1 -6 9 -14 18 -11 14 -11 20 -1 32 10 12 10 15 -1
15 -12 0 -12 2 0 9 9 6 10 10 2 16 -9 5 -9 10 -1 20 8 10 8 15 0 20 -8 5 -8
11 1 21 6 8 8 14 3 14 -5 0 -9 11 -9 25 0 14 3 25 6 25 10 0 5 45 -6 52 -6 5
-5 8 3 8 8 0 10 5 5 13 -4 6 -8 17 -9 22 0 6 -2 17 -3 25 -1 13 -2 13 -11 0
-6 -10 -9 -6 -8 18 1 17 5 29 10 26 5 -4 4 3 -3 14 -7 12 -16 19 -20 16 -4 -2
-10 0 -14 6 -3 5 0 10 7 10 9 0 9 3 -2 10 -8 5 -10 10 -3 10 6 0 9 9 6 20 -3
11 -9 17 -14 14 -5 -3 -9 0 -9 6 0 6 -5 8 -12 4 -9 -5 -8 -2 1 9 12 15 12 19
-4 31 -10 7 -15 18 -11 24 4 7 3 12 -2 12 -12 0 -34 49 -27 61 4 5 -2 6 -12 2
-10 -3 -15 -3 -11 2 4 4 3 14 -3 22 -9 10 -8 13 0 13 7 0 9 5 6 11 -4 6 -13 8
-19 6 -8 -3 -12 3 -11 16 1 12 -7 30 -17 41 -12 14 -15 22 -7 27 7 4 4 9 -10
14 -11 3 -21 13 -21 21 0 8 -3 13 -7 13 -19 -3 -27 2 -15 9 10 7 8 15 -8 35
-12 15 -28 27 -36 27 -8 0 -13 3 -11 8 3 10 -80 92 -95 92 -6 0 -9 3 -5 6 3 3
-5 18 -19 32 -13 15 -24 30 -24 35 0 4 -4 6 -9 2 -6 -3 -15 4 -21 15 -6 11
-15 18 -21 15 -5 -4 -9 0 -9 8 0 10 -7 13 -20 10 -14 -4 -20 0 -20 13 0 9 -3
14 -7 11 -3 -4 -12 2 -20 13 -15 22 -38 28 -28 8 4 -7 -3 -2 -14 11 -12 13
-27 21 -36 17 -9 -3 -15 0 -15 9 0 13 -30 19 -66 14 -4 0 -10 5 -15 13 -4 7
-16 13 -26 13 -10 0 -17 6 -15 14 2 9 -4 12 -18 8 -11 -3 -20 -1 -20 4 0 5 -7
9 -16 9 -9 0 -12 5 -8 12 5 8 0 9 -15 5 -15 -3 -24 1 -31 14 -7 11 -16 16 -26
12 -10 -4 -20 0 -25 9 -6 10 -20 15 -39 14 -16 -1 -31 3 -34 10 -2 6 -14 14
-25 17 -13 3 -19 1 -15 -5 4 -6 -3 -5 -15 1 -16 9 -21 9 -21 -1 0 -9 -3 -10
-8 -2 -4 6 -15 10 -24 8 -10 -1 -18 3 -18 10 0 9 -22 12 -72 12 -53 0 -72 4
-70 13 1 7 -2 10 -8 6 -5 -3 -10 -2 -10 2 0 5 -20 7 -45 6 -28 -2 -44 1 -40 7
6 10 0 12 -48 12 -15 1 -26 3 -23 5 3 3 -1 11 -7 18 -8 9 -16 10 -24 3 -9 -7
-13 -7 -13 2 0 10 -3 10 -14 1 -11 -10 -16 -8 -20 7 -4 13 -16 19 -34 20 -47
0 -53 2 -47 12 4 6 -10 10 -35 10 -23 0 -39 4 -36 9 8 12 -15 20 -54 17 -19
-1 -42 4 -52 13 -22 19 -48 23 -48 8 0 -8 -3 -8 -8 -2 -9 13 -32 17 -32 6 0
-5 -11 -4 -24 2 -13 7 -23 14 -21 18 3 3 -38 6 -89 6 -69 0 -98 3 -108 14 -24
23 -158 13 -158 -12 0 -9 -66 -2 -84 9 -5 3 -6 0 -2 -7 6 -9 0 -11 -21 -9 -19
2 -27 -1 -25 -11 2 -8 -3 -11 -13 -8 -8 4 -15 1 -15 -5 0 -7 -4 -7 -13 1 -10
8 -17 7 -27 -2 -8 -8 -11 -8 -6 0 4 7 -1 9 -14 6 -11 -3 -17 -9 -14 -14 5 -9
-8 -13 -39 -9 -10 1 -16 -4 -15 -12 2 -9 -9 -13 -34 -13 -20 0 -34 -3 -31 -7
2 -5 -1 -8 -7 -8 -6 0 -9 -4 -6 -8 3 -5 -5 -7 -17 -6 -12 1 -30 3 -40 3 -10 1
-15 6 -12 11 3 6 -1 10 -9 10 -9 0 -16 7 -16 15 0 8 -6 14 -12 12 -7 -1 -12 3
-12 8 1 6 -7 19 -19 30 -11 11 -16 13 -12 5 8 -13 7 -13 -8 -1 -9 7 -17 20
-17 28 0 8 -4 11 -10 8 -5 -3 -10 1 -10 9 0 8 -13 23 -29 32 -16 9 -27 23 -24
30 2 7 -4 21 -16 30 -11 10 -17 22 -14 27 3 6 1 7 -5 3 -7 -4 -12 -2 -12 4 0
6 -4 8 -10 5 -5 -3 -10 3 -10 13 0 11 -6 20 -12 19 -33 -1 -49 4 -43 13 3 6
-1 10 -10 10 -9 0 -13 5 -10 10 3 6 -1 10 -9 10 -9 0 -16 7 -16 17 0 9 -3 13
-7 10 -3 -4 -12 2 -20 13 -8 11 -23 20 -33 20 -10 0 -22 5 -25 10 -4 6 -11 8
-16 5 -5 -3 -6 1 -3 10 5 11 -2 17 -25 21 -17 4 -31 13 -31 21 0 8 -4 11 -10
8 -5 -3 -10 1 -10 9 0 10 -7 13 -20 11 -12 -2 -23 2 -27 10 -3 8 -12 15 -21
15 -8 0 -13 3 -9 6 3 3 -6 17 -21 31 -15 13 -28 20 -30 14 -2 -7 -8 -6 -17 2
-7 7 -11 15 -8 20 2 4 -2 7 -10 7 -8 0 -18 7 -21 16 -3 8 -10 12 -16 9 -6 -4
-7 1 -3 11 5 14 2 16 -20 12 -15 -3 -27 -2 -27 2 0 18 -60 70 -81 70 -12 0
-19 3 -15 7 3 4 -12 15 -34 25 -23 11 -44 26 -47 34 -3 7 -11 14 -19 14 -8 0
-14 5 -14 11 0 18 -28 39 -43 33 -10 -3 -18 2 -22 15 -3 12 -13 21 -21 21 -8
0 -14 7 -14 16 0 8 -4 12 -10 9 -5 -3 -10 0 -10 8 0 8 -9 13 -22 12 -13 -1
-31 8 -41 19 -10 12 -16 16 -13 10 3 -6 -1 -11 -9 -11 -8 0 -12 3 -10 7 6 10
-29 41 -50 44 -9 1 -20 7 -23 13 -11 15 -52 23 -52 10 0 -7 -7 -3 -16 8 -8 11
-19 21 -24 21 -6 1 -17 2 -25 3 -8 0 -15 8 -15 17 0 13 -3 14 -14 5 -10 -8
-16 -8 -25 2 -6 8 -8 17 -5 20 4 4 -3 5 -15 2 -11 -2 -21 0 -21 5 0 5 -12 13
-27 16 -16 4 -36 16 -45 27 -10 11 -18 16 -18 11 0 -6 -11 -10 -25 -10 -13 0
-22 2 -20 5 3 2 -3 10 -13 17 -13 9 -19 9 -24 1 -6 -9 -8 -9 -8 0 0 6 -9 9
-20 6 -12 -3 -22 1 -25 10 -4 8 -18 15 -32 15 -14 0 -28 4 -32 9 -9 15 -71 22
-71 9 0 -6 -7 -3 -14 6 -7 10 -16 15 -19 11 -4 -3 -7 -1 -7 6 0 7 -6 11 -14 8
-7 -3 -19 0 -26 6 -10 9 -11 9 -5 -1 10 -19 -26 -11 -45 10 -12 12 -20 14 -34
6 -14 -8 -17 -8 -11 2 6 9 3 9 -14 1 -11 -7 -21 -8 -21 -3 0 5 -7 9 -15 9 -8
0 -15 -5 -15 -10 0 -5 -6 -4 -14 2 -11 9 -15 9 -19 -1 -4 -11 -6 -11 -6 0 -1
9 -6 10 -20 2 -11 -5 -22 -6 -25 -2 -6 10 -42 9 -52 -1 -4 -3 -15 -2 -25 3
-12 7 -19 6 -22 -3 -4 -8 -8 -8 -14 -2 -12 14 -33 17 -33 4 0 -8 -4 -8 -13 0
-10 8 -17 7 -25 -1 -7 -7 -12 -8 -12 -2 0 5 -9 10 -20 10 -11 0 -20 -5 -20
-10 0 -6 -5 -5 -11 1 -7 7 -20 8 -34 3 -16 -6 -28 -4 -41 8 -11 10 -35 18 -54
19 -19 0 -48 1 -63 2 -16 1 -26 5 -23 10 3 5 -7 11 -22 14 -15 3 -30 1 -33 -5
-4 -6 -9 -5 -12 3 -4 10 -6 10 -6 2 -1 -9 -8 -10 -23 -4 -13 4 -29 6 -37 3 -8
-3 -11 0 -7 7 4 6 0 12 -8 12 -24 2 -30 4 -42 11 -6 4 -14 4 -18 1 -12 -12
-46 -13 -46 -2 0 8 -4 8 -13 1 -14 -12 -42 -11 -54 3 -4 4 -2 5 5 1 6 -4 12
-5 12 -1 0 12 -46 22 -62 13 -10 -5 -18 -5 -18 0 0 10 -30 9 -46 0 -5 -4 -16
-3 -24 2 -9 5 -19 5 -27 -2 -9 -7 -13 -7 -13 0 0 6 -13 7 -35 2 -23 -5 -33 -4
-29 2 4 6 -2 7 -16 3 -18 -6 -22 -4 -18 7 4 10 -3 14 -28 15 -19 0 -34 -4 -34
-11 0 -8 -2 -8 -8 1 -4 7 -32 11 -67 11 -84 -1 -97 1 -91 11 3 5 -8 11 -24 13
-17 3 -30 1 -30 -4 0 -5 -5 -6 -12 -2 -17 11 -58 11 -58 1 0 -4 -5 -5 -12 -1
-16 10 -78 11 -78 1 0 -5 -6 -5 -12 -1 -19 12 -48 12 -48 0 0 -7 -3 -7 -10 0
-6 6 -31 8 -61 4 -27 -4 -52 -3 -54 1 -3 4 -20 3 -39 -1 -19 -4 -38 -5 -42 -1
-4 3 -4 0 0 -6 8 -14 4 -15 -54 -17 -20 0 -34 -6 -33 -12 1 -6 -8 -10 -20 -10
-12 1 -28 -2 -34 -7 -8 -6 -13 -6 -13 1 0 6 -13 7 -35 2 -24 -5 -33 -5 -28 3
4 7 0 8 -13 3 -24 -11 -34 -11 -61 -2 -14 4 -23 3 -23 -3 0 -6 -11 -7 -29 -1
-19 5 -33 4 -40 -3 -8 -8 -11 -8 -11 1 0 9 -5 10 -19 2 -13 -7 -20 -7 -23 1
-2 7 -12 7 -31 0 -20 -8 -27 -7 -27 2 0 8 -3 8 -9 -2 -6 -9 -10 -10 -12 -2 -3
9 -12 9 -32 2 -20 -8 -27 -7 -27 2 0 8 -3 8 -9 -2 -6 -9 -10 -10 -12 -2 -3 9
-12 9 -32 2 -20 -8 -27 -7 -27 2 0 8 -3 8 -9 -2 -6 -9 -10 -10 -12 -2 -3 9
-12 9 -32 2 -15 -6 -27 -7 -27 -3 0 4 -14 7 -30 8 -17 1 -30 -2 -30 -6 0 -5
-9 -6 -20 -3 -13 4 -26 -1 -34 -13 -12 -15 -16 -16 -30 -5 -9 8 -16 9 -16 3 0
-11 -40 -10 -60 3 -8 5 -11 4 -7 -2 4 -6 -8 -10 -28 -10 -19 0 -35 5 -35 10 0
6 -5 6 -12 -1 -14 -11 -57 -10 -75 1 -6 4 -14 3 -18 -2 -3 -5 -14 -8 -25 -6
-12 2 -17 -1 -14 -9 4 -10 -7 -13 -39 -13 -24 0 -49 -3 -56 -7 -6 -4 -11 -2
-11 4 0 7 -6 8 -19 1 -10 -6 -22 -7 -26 -3 -5 4 -6 0 -3 -8 5 -13 -3 -15 -37
-14 -24 1 -49 5 -56 9 -8 5 -10 4 -5 -4 6 -9 0 -11 -21 -9 -19 2 -27 -1 -25
-11 2 -8 -3 -11 -11 -8 -8 3 -20 0 -26 -6 -7 -7 -11 -7 -11 -1 0 11 -35 12
-46 1 -4 -3 -15 -2 -25 3 -12 7 -19 6 -22 -3 -4 -9 -6 -8 -6 2 -1 11 -4 11
-16 1 -8 -7 -15 -8 -15 -3 0 5 -9 9 -19 9 -11 0 -18 -3 -15 -7 4 -7 -26 -19
-69 -25 -18 -3 -26 0 -22 7 4 6 -2 5 -13 -2 -12 -7 -18 -17 -15 -22 3 -6 -8
-8 -26 -5 -17 2 -31 1 -31 -4 0 -4 -7 -8 -16 -8 -8 0 -13 -4 -10 -9 3 -5 -1
-12 -10 -15 -10 -4 -13 -2 -8 6 5 8 2 9 -9 5 -10 -4 -17 -1 -17 5 0 7 -6 3
-14 -7 -12 -17 -25 -22 -69 -27 -10 -1 -16 -7 -13 -14 3 -8 -9 -11 -35 -9 -30
2 -39 -1 -35 -11 3 -8 0 -11 -10 -7 -7 3 -14 0 -14 -7 0 -6 -5 -8 -10 -5 -6 3
-16 0 -24 -8 -8 -7 -25 -13 -37 -12 -13 1 -33 -7 -44 -17 -12 -11 -21 -14 -23
-8 -3 8 -8 7 -18 -1 -11 -9 -14 -9 -14 1 0 10 -3 10 -14 1 -11 -9 -15 -9 -18
1 -3 8 -11 5 -23 -10 -20 -23 -42 -31 -29 -10 4 7 3 8 -5 4 -21 -14 -63 -18
-56 -5 5 7 -1 7 -16 -2 -13 -7 -26 -11 -29 -10 -3 2 -13 7 -22 12 -10 6 -19 5
-23 0 -3 -6 -21 -8 -40 -6 -24 4 -34 1 -32 -8 1 -9 -18 -12 -71 -12 -39 0 -72
-3 -72 -6 0 -4 -12 -14 -26 -24 -15 -9 -23 -12 -19 -6 4 8 -4 11 -27 9 -19 -1
-40 2 -47 7 -10 6 -12 4 -6 -5 6 -10 4 -12 -8 -7 -11 4 -21 -1 -28 -15 -9 -16
-13 -18 -19 -7 -7 10 -11 10 -24 0 -9 -8 -16 -10 -16 -5 0 5 -15 9 -32 8 -21
-1 -33 -6 -33 -15 0 -9 -15 -13 -53 -14 -29 0 -56 3 -58 7 -3 4 -13 2 -24 -4
-10 -7 -17 -15 -14 -19 2 -4 -12 -6 -31 -4 -24 2 -33 0 -28 -8 4 -7 0 -7 -9 1
-12 9 -18 10 -23 2 -5 -8 -12 -7 -23 2 -10 7 -14 9 -10 4 10 -11 -14 -35 -30
-29 -7 3 -20 -1 -29 -8 -14 -12 -16 -12 -9 1 4 9 2 8 -7 -2 -8 -10 -17 -15
-20 -11 -4 3 -7 1 -7 -7 0 -10 -3 -10 -14 0 -12 9 -18 8 -32 -8 -9 -11 -23
-18 -30 -15 -9 3 -14 -2 -14 -13 0 -16 -2 -17 -10 -4 -7 12 -10 12 -10 1 0 -9
-8 -11 -24 -7 -15 4 -26 1 -28 -6 -2 -6 -15 -13 -28 -15 -14 -2 -29 -9 -35
-15 -7 -8 -6 -9 4 -3 9 5 12 4 7 -3 -3 -6 -19 -11 -34 -11 -49 -2 -61 -4 -57
-12 6 -9 -24 -21 -36 -13 -9 5 -13 -10 -10 -30 1 -5 -5 -4 -13 4 -13 10 -16
10 -16 0 0 -8 -3 -10 -6 -7 -4 3 -16 1 -28 -5 -11 -7 -24 -11 -29 -10 -4 1 -6
-3 -5 -10 2 -7 -6 -12 -17 -12 -11 0 -31 -12 -44 -26 -14 -14 -29 -24 -34 -22
-5 1 -6 -2 -2 -7 3 -6 -4 -15 -15 -21 -11 -6 -20 -8 -20 -4 0 3 -7 1 -15 -6
-8 -7 -12 -17 -8 -23 3 -5 1 -7 -4 -4 -6 4 -21 -2 -33 -13 -13 -11 -20 -20
-16 -20 4 0 1 -6 -6 -14 -7 -8 -16 -12 -20 -10 -4 2 -9 -5 -13 -15 -3 -11 -15
-23 -26 -26 -10 -4 -17 -10 -14 -14 2 -5 -5 -8 -18 -7 -13 1 -21 -4 -19 -11 1
-7 -7 -13 -19 -13 -11 0 -18 -4 -15 -8 3 -5 -6 -19 -19 -30 -14 -12 -25 -26
-25 -31 0 -6 -8 -8 -18 -6 -10 2 -25 -1 -33 -6 -8 -5 -10 -9 -6 -9 5 0 1 -7
-7 -16 -9 -8 -20 -12 -26 -9 -6 4 -10 3 -9 -2 4 -23 -2 -35 -16 -29 -12 4 -14
0 -11 -18 4 -22 -29 -64 -47 -58 -4 1 -6 -4 -5 -10 2 -7 -3 -12 -10 -10 -8 1
-11 -1 -8 -6 7 -11 -40 -53 -49 -44 -4 4 -6 3 -5 -3 6 -26 -1 -55 -12 -53 -7
2 -12 -1 -12 -7 1 -5 -9 -20 -22 -33 -13 -12 -24 -20 -24 -17 0 11 -26 -19
-33 -39 -4 -10 -10 -16 -14 -12 -8 7 -39 -35 -35 -48 2 -5 -3 -4 -11 2 -11 10
-17 9 -27 -3 -7 -8 -19 -15 -27 -15 -8 0 -12 -4 -9 -9 3 -4 -13 -23 -35 -41
-28 -22 -39 -38 -36 -51 3 -12 -2 -20 -14 -24 -10 -4 -18 -12 -16 -18 1 -7 -3
-11 -10 -10 -6 2 -15 -6 -18 -17 -4 -11 -11 -18 -16 -15 -5 4 -9 -1 -9 -9 0
-9 -6 -16 -14 -16 -9 0 -12 -7 -9 -20 3 -12 -1 -22 -11 -26 -9 -3 -13 -11 -9
-17 4 -6 0 -8 -10 -4 -10 4 -17 2 -17 -5 0 -6 -11 -21 -24 -33 -14 -13 -22
-26 -19 -29 4 -3 -1 -6 -10 -6 -9 0 -17 -5 -17 -11 0 -5 -4 -7 -10 -4 -5 3
-10 1 -10 -5 0 -14 -26 -41 -37 -39 -21 4 -34 -2 -27 -13 5 -8 2 -9 -9 -5 -9
3 -23 -1 -32 -9 -8 -9 -35 -16 -60 -17 -26 -1 -47 -7 -50 -15 -3 -7 -9 -10
-15 -7 -5 3 -10 0 -10 -7 0 -11 -2 -10 -9 0 -6 11 -9 9 -13 -6 -4 -14 -13 -19
-32 -17 -14 2 -26 -1 -26 -7 0 -6 -7 -8 -15 -4 -10 3 -15 -1 -15 -12 0 -12 -3
-13 -8 -5 -5 8 -13 9 -22 3 -8 -6 -10 -10 -5 -10 6 0 3 -4 -5 -10 -9 -6 -20
-5 -29 3 -8 7 -12 8 -9 2 7 -12 -17 -37 -26 -28 -3 4 -6 0 -6 -8 0 -11 -2 -11
-10 1 -8 13 -10 12 -10 -2 0 -10 -7 -19 -15 -19 -8 -1 -19 -2 -25 -3 -5 0 -16
-10 -24 -21 -9 -11 -16 -15 -16 -9 0 14 -30 13 -46 -1 -7 -5 -10 -14 -7 -18 3
-5 -5 -4 -17 3 -12 7 -20 8 -17 3 7 -11 -13 -27 -38 -31 -11 -2 -24 -9 -30
-16 -5 -6 -18 -10 -29 -8 -10 2 -16 0 -13 -5 3 -4 -1 -14 -9 -21 -8 -7 -14 -9
-14 -4 0 5 -7 9 -15 9 -8 0 -13 -2 -11 -5 9 -8 -39 -52 -51 -47 -8 2 -16 -2
-19 -10 -4 -8 -9 -13 -14 -10 -4 2 -13 -7 -20 -20 -7 -14 -21 -27 -32 -31 -10
-3 -18 -12 -18 -20 0 -10 -8 -13 -23 -10 -18 3 -26 -3 -36 -25 -7 -16 -16 -27
-20 -24 -5 2 -17 -3 -27 -11 -10 -9 -12 -12 -4 -8 9 4 12 3 7 -2 -9 -9 -13
-10 -44 -13 -9 0 -14 -4 -10 -7 8 -8 -16 -33 -25 -27 -5 2 -8 0 -8 -6 0 -6 -6
-8 -14 -5 -8 3 -23 -8 -36 -25 -21 -30 -48 -44 -35 -18 4 6 -7 -3 -24 -20 -17
-18 -35 -33 -41 -33 -5 0 -10 -7 -10 -16 0 -8 -4 -13 -9 -9 -5 3 -12 -4 -16
-15 -7 -23 -16 -25 -34 -7 -8 6 -12 8 -9 2 3 -5 -15 -29 -38 -53 -24 -23 -44
-38 -44 -32 0 19 -18 10 -24 -12 -5 -18 -8 -20 -15 -9 -6 9 -11 10 -15 2 -4
-6 -12 -9 -17 -6 -5 3 -6 -1 -3 -10 4 -9 3 -15 -2 -14 -25 4 -54 -2 -49 -11 6
-10 -13 -14 -47 -11 -10 1 -18 -3 -18 -9 0 -6 -3 -9 -7 -7 -10 6 -34 -19 -26
-27 6 -5 -21 -10 -39 -7 -5 0 -8 -4 -8 -9 0 -6 -7 -10 -16 -10 -8 0 -13 -4
-10 -9 4 -5 -3 -7 -14 -4 -14 4 -20 1 -18 -8 2 -8 -3 -13 -9 -12 -12 3 -18
-10 -14 -31 1 -5 -4 -4 -12 3 -12 9 -18 8 -33 -6 -9 -10 -22 -18 -28 -19 -6 0
-17 -2 -23 -2 -7 -1 -13 -10 -14 -19 0 -10 -3 -13 -5 -7 -6 13 -40 7 -68 -12
-10 -7 -25 -10 -34 -7 -10 4 -13 2 -8 -5 5 -8 -3 -14 -23 -18 -20 -4 -28 -11
-24 -20 4 -10 0 -12 -11 -8 -11 4 -16 1 -16 -11 0 -9 -4 -13 -10 -10 -5 3 -10
0 -10 -7 0 -10 -2 -10 -9 1 -7 11 -11 9 -20 -8 -7 -12 -16 -19 -22 -16 -5 4
-8 1 -7 -7 2 -7 -4 -13 -12 -13 -8 0 -21 -6 -28 -13 -8 -7 -18 -9 -24 -6 -6 4
-8 2 -4 -4 3 -6 -4 -18 -16 -26 -12 -9 -19 -16 -14 -16 5 0 -1 -9 -14 -20 -12
-11 -27 -17 -33 -13 -6 4 -8 0 -4 -10 4 -11 -1 -18 -14 -22 -10 -4 -16 -11
-13 -17 5 -7 -2 -9 -20 -6 -14 3 -26 2 -26 -2 0 -4 -14 -21 -30 -38 -16 -18
-30 -36 -30 -42 0 -5 -7 -6 -17 -3 -10 4 -14 2 -10 -4 4 -6 -6 -13 -24 -17
-17 -3 -28 -9 -26 -13 5 -9 -24 -40 -33 -35 -3 1 -5 -2 -5 -8 0 -5 -4 -10 -9
-9 -5 0 -16 -11 -26 -25 -9 -15 -20 -23 -23 -19 -4 3 -7 1 -7 -5 0 -14 -36
-52 -43 -45 -3 2 -8 -5 -12 -16 -3 -12 -10 -21 -14 -21 -4 0 -16 -7 -27 -16
-10 -8 -12 -13 -4 -9 13 6 13 5 0 -7 -9 -7 -14 -22 -12 -32 3 -14 0 -17 -12
-13 -10 4 -16 1 -16 -8 0 -8 -4 -15 -10 -15 -5 0 -10 -7 -10 -15 0 -8 -3 -14
-8 -12 -4 1 -35 -26 -70 -61 -34 -34 -66 -62 -72 -62 -5 0 -7 -7 -4 -14 4 -11
-1 -14 -20 -10 -18 3 -26 0 -26 -10 0 -7 -9 -16 -21 -19 -12 -3 -18 -10 -15
-16 6 -9 -38 -6 -55 4 -4 3 -6 -3 -5 -12 1 -12 -7 -18 -24 -18 -14 0 -26 -7
-28 -16 -2 -11 -13 -15 -42 -12 -22 2 -39 0 -37 -5 1 -4 -2 -8 -7 -9 -5 -1
-13 -7 -17 -15 -5 -7 -9 -8 -9 -3 0 6 -26 9 -59 8 -52 -1 -59 1 -54 15 4 10 3
14 -1 10 -11 -9 -46 23 -39 35 4 6 1 7 -6 3 -8 -5 -14 0 -18 13 -3 12 -10 21
-15 21 -14 0 -58 47 -50 55 4 4 2 5 -4 3 -6 -2 -38 25 -71 60 -33 34 -68 62
-79 62 -10 0 -28 12 -38 27 -11 14 -14 23 -7 18 10 -6 11 -3 1 14 -6 12 -15
19 -21 16 -5 -4 -9 -1 -9 6 0 14 -38 49 -54 49 -6 0 -5 4 2 9 10 6 8 10 -8 14
-14 4 -19 10 -14 18 4 8 3 10 -5 5 -6 -4 -14 0 -17 8 -3 9 -10 13 -15 10 -5
-3 -9 -2 -8 3 4 23 -2 35 -17 29 -8 -3 -13 -2 -10 3 3 5 -1 12 -10 15 -8 3
-12 11 -8 17 4 8 3 9 -4 5 -6 -3 -16 3 -22 15 -7 12 -19 19 -28 17 -10 -2 -25
4 -34 14 -10 10 -16 18 -13 18 3 0 -5 11 -17 25 -11 13 -26 21 -31 18 -6 -4
-8 0 -4 9 3 10 0 15 -11 14 -9 0 -16 5 -15 12 3 11 -9 16 -29 13 -4 0 -5 6 -2
14 4 9 -4 19 -20 26 -14 7 -26 19 -26 26 0 8 -4 11 -10 8 -6 -3 -10 1 -10 9 0
9 -7 16 -16 16 -8 0 -12 5 -9 10 3 6 2 10 -4 10 -5 0 -8 9 -6 20 2 11 0 18 -6
15 -5 -4 -12 1 -15 9 -3 9 -17 16 -31 16 -13 0 -22 4 -19 9 3 4 -3 16 -14 26
-16 14 -18 21 -8 28 9 6 6 7 -9 4 -13 -3 -23 -1 -23 4 0 5 -7 9 -16 9 -8 0
-12 5 -9 10 3 6 2 10 -3 10 -10 0 -82 67 -77 72 2 2 -3 9 -11 16 -8 7 -14 10
-14 7 0 -2 -13 9 -29 26 -17 17 -34 28 -39 25 -11 -7 -34 17 -27 27 3 4 2 5
-2 2 -3 -2 -16 7 -29 20 -13 14 -29 25 -36 25 -8 0 -20 9 -28 19 -7 11 -18 17
-22 14 -5 -3 -12 4 -15 16 -3 11 -14 23 -24 26 -11 4 -17 11 -14 16 4 5 -1 9
-9 9 -8 0 -18 10 -21 21 -4 12 -10 18 -14 13 -11 -16 -34 -16 -28 1 4 9 1 15
-7 15 -8 0 -17 7 -20 16 -4 10 -14 14 -26 11 -13 -3 -20 0 -20 9 0 8 -4 14
-10 14 -14 0 -59 48 -51 56 3 4 -2 4 -12 1 -12 -5 -30 5 -58 33 -23 22 -45 37
-50 34 -5 -3 -9 0 -9 5 0 6 -7 11 -15 11 -8 0 -15 9 -15 20 0 12 -7 20 -16 20
-18 0 -44 23 -44 40 0 6 -5 8 -10 5 -5 -3 -10 1 -10 9 0 8 -9 18 -20 21 -11 4
-18 11 -15 16 4 5 -1 9 -9 9 -8 0 -18 9 -21 20 -3 11 -10 20 -15 20 -13 0 -60
45 -60 58 0 6 -9 14 -20 17 -11 3 -20 13 -20 21 0 8 -5 12 -10 9 -10 -6 -14 7
-11 33 1 8 -7 16 -18 19 -12 3 -18 9 -16 14 3 4 -6 16 -20 25 -14 9 -25 23
-25 30 0 8 -5 13 -11 11 -6 -1 -13 7 -15 18 -1 11 -8 21 -13 23 -6 2 -11 10
-11 18 0 8 -5 13 -11 12 -6 -2 -13 7 -14 20 -1 13 -14 34 -28 48 -16 14 -24
30 -20 39 3 10 0 15 -8 13 -8 -2 -13 3 -11 10 1 7 -6 16 -15 19 -24 9 -43 29
-36 37 4 3 1 6 -6 6 -7 0 -9 5 -5 13 5 7 0 6 -11 -3 -10 -8 -16 -10 -12 -3 4
7 -2 18 -15 27 -13 9 -17 16 -9 16 11 0 10 4 -2 18 -10 10 -14 22 -10 27 5 4
4 6 -2 3 -12 -6 -46 28 -37 37 4 4 2 6 -3 5 -21 -5 -36 0 -30 10 3 6 1 10 -5
10 -6 0 -8 5 -4 12 4 7 3 8 -5 4 -6 -4 -14 0 -17 8 -3 9 -13 16 -21 16 -9 0
-11 5 -7 13 6 9 5 9 -7 1 -11 -9 -17 -9 -27 2 -7 8 -10 14 -7 14 3 0 0 6 -7
14 -7 8 -17 13 -23 13 -5 -1 -9 4 -7 11 1 6 -5 12 -13 12 -8 0 -15 7 -15 16 0
9 -8 18 -19 21 -10 2 -24 15 -31 29 -7 13 -17 21 -22 18 -4 -3 -8 3 -8 12 0
10 -3 15 -6 11 -8 -8 -33 16 -27 26 3 5 -4 4 -16 -2 -11 -7 -21 -8 -21 -3 0
13 -36 53 -46 51 -21 -3 -35 2 -29 11 3 6 -3 10 -14 10 -11 0 -26 6 -33 13 -7
6 -26 12 -43 13 -19 0 -29 5 -27 13 1 7 -2 10 -8 6 -5 -3 -10 0 -10 7 0 9 -3
9 -10 -2 -7 -11 -10 -11 -10 -2 0 10 -5 10 -21 1 -15 -8 -19 -8 -15 0 4 6 2
11 -4 11 -6 0 -9 4 -6 9 3 5 -15 8 -42 7 -36 -1 -50 3 -61 17 -11 15 -15 16
-22 6 -5 -8 -9 -9 -9 -3 0 7 -10 9 -25 7 -14 -3 -31 1 -39 9 -8 8 -31 14 -53
14 -35 -1 -65 12 -58 24 2 3 -5 6 -16 6 -10 0 -19 -5 -19 -11 0 -5 -5 -3 -10
5 -9 13 -10 13 -10 0 0 -13 -1 -13 -10 0 -5 8 -10 11 -10 7 0 -5 -7 -1 -16 7
-19 19 -59 22 -48 4 5 -9 2 -9 -9 1 -9 7 -17 19 -17 25 0 8 -11 11 -28 8 -17
-2 -35 2 -43 10 -8 8 -19 13 -26 11 -6 -2 -20 4 -30 15 -11 10 -25 16 -31 14
-7 -2 -15 4 -18 12 -4 11 -13 14 -25 11 -13 -4 -19 -1 -19 9 0 10 -9 16 -21
16 -24 0 -51 24 -41 36 4 5 1 4 -7 -3 -16 -13 -44 -6 -34 10 3 5 1 7 -5 3 -6
-3 -13 -2 -17 4 -4 7 -13 7 -26 -1 -17 -9 -21 -7 -26 11 -4 15 -11 20 -24 17
-11 -3 -19 -1 -19 5 0 5 -5 6 -12 2 -7 -5 -9 -2 -5 8 6 17 -8 19 -32 4 -10 -6
-12 -5 -7 3 4 6 0 14 -8 17 -9 3 -13 11 -9 18 4 8 2 8 -7 -1 -10 -9 -17 -7
-32 7 -11 10 -26 16 -34 13 -8 -3 -14 1 -14 11 0 9 -3 15 -7 15 -29 -5 -53 4
-58 21 -3 11 -13 20 -21 20 -8 0 -14 5 -14 11 0 8 -6 7 -17 -2 -15 -12 -16
-12 -11 3 4 10 1 19 -8 22 -8 3 -14 0 -14 -6 0 -6 -8 -1 -19 10 -10 12 -24 22
-30 22 -7 0 -9 5 -6 10 5 9 -8 12 -32 9 -3 0 -10 6 -15 15 -5 9 -12 14 -16 12
-9 -6 -8 121 1 130 4 4 2 13 -3 20 -14 15 -10 33 13 56 14 15 16 23 7 33 -8
10 -8 15 1 20 8 6 7 10 -2 16 -12 7 -12 9 0 9 11 0 11 3 1 15 -10 12 -10 15 0
15 10 0 10 3 0 15 -10 12 -10 15 0 15 9 0 10 3 1 14 -9 10 -7 16 5 26 8 8 13
22 11 32 -3 10 -2 16 2 14 4 -3 7 24 7 59 0 35 -2 62 -5 60 -2 -3 -10 0 -18 6
-10 9 -10 15 -2 25 9 11 8 14 -1 14 -8 0 -10 3 -7 7 4 3 0 14 -9 24 -9 10 -14
25 -11 34 4 9 1 15 -8 15 -8 0 -15 8 -15 17 0 9 -3 13 -6 10 -8 -7 -44 31 -44
46 0 5 -11 7 -25 5 -13 -3 -22 -1 -19 4 8 12 -39 27 -53 16 -7 -6 -13 -4 -16
4 -4 10 -8 10 -16 -2 -8 -12 -11 -12 -11 -1 0 10 -3 11 -14 2 -11 -9 -15 -9
-19 1 -4 11 -6 11 -6 0 -1 -9 -6 -10 -20 -2 -16 8 -21 6 -26 -11z m2075 -5793
c0 -2 -8 -10 -17 -17 -16 -13 -17 -12 -4 4 13 16 21 21 21 13z"/>
</g>
</svg>
